<svg viewBox="0 0 64 64" xmlns="http://www.w3.org/2000/svg" xmlns:xlink="http://www.w3.org/1999/xlink" width="64.000000" height="64.000000" fill="none">
	<path id="Vector" d="M63.8099 15.073L53.3319 48.146L53.5789 48.926C53.7391 49.4264 53.7985 49.9537 53.7535 50.4772C53.7085 51.0008 53.5601 51.5102 53.3169 51.976C52.9239 52.732 52.3169 53.329 51.5699 53.704L51.5609 53.737L49.1939 61.207C48.8721 62.2171 48.1631 63.0585 47.2222 63.5469C46.2813 64.0354 45.1852 64.131 44.1739 63.813L31.9999 59.957L19.8259 63.813C18.8146 64.131 17.7185 64.0354 16.7776 63.5469C15.8368 63.0585 15.1278 62.2171 14.8059 61.207L0.187936 15.074C0.027949 14.5735 -0.0311834 14.0462 0.0139604 13.5227C0.0591041 12.9991 0.207628 12.4897 0.450936 12.024C0.691548 11.5566 1.02255 11.1416 1.42474 10.8031C1.82694 10.4646 2.29233 10.2093 2.79394 10.052L33.9429 0.187C34.9541 -0.131631 36.0503 -0.0363451 36.9913 0.451969C37.9324 0.940283 38.6414 1.78178 38.9629 2.792L39.0399 3.034C39.0489 3.036 39.0579 3.037 39.0659 3.04L61.2059 10.053C61.7071 10.2103 62.1722 10.4654 62.5742 10.8035C62.9762 11.1417 63.3071 11.5561 63.5479 12.023C64.0399 12.973 64.1329 14.055 63.8099 15.073ZM48.4439 54.75L36.4159 58.559L44.9779 61.271C45.3152 61.3777 45.681 61.3463 45.995 61.1835C46.3091 61.0208 46.5457 60.7401 46.6529 60.403L48.4439 54.75ZM51.0369 49.732L36.4209 3.598C36.3141 3.26106 36.0779 2.98029 35.7642 2.81736C35.4506 2.65442 35.085 2.62264 34.7479 2.729L3.59994 12.595C3.25994 12.702 2.98294 12.935 2.81894 13.252C2.73775 13.4073 2.68817 13.5771 2.67307 13.7517C2.65796 13.9263 2.67763 14.1021 2.73094 14.269L17.3469 60.402C17.5689 61.103 18.3199 61.492 19.0209 61.271L31.5609 57.299C31.5889 57.289 31.6169 57.279 31.6459 57.272L50.1689 51.405C50.5089 51.298 50.7859 51.065 50.9489 50.748C51.1139 50.432 51.1449 50.071 51.0369 49.731L51.0369 49.732ZM48.4969 32.885L53.4459 17.265L42.4449 13.781L48.4969 32.885ZM61.1799 13.25C61.0997 13.0945 60.9895 12.9565 60.8556 12.8439C60.7217 12.7313 60.5668 12.6464 60.3999 12.594L40.0229 6.14L41.4689 10.701C41.5569 10.711 41.6449 10.729 41.7319 10.757L54.2499 14.722C54.584 14.8269 54.8939 14.9969 55.1618 15.2223C55.4298 15.4477 55.6504 15.7239 55.8109 16.035C55.9733 16.3456 56.0725 16.6852 56.1027 17.0344C56.1329 17.3835 56.0935 17.7352 55.9869 18.069L49.8949 37.297L51.9329 43.731L61.2679 14.267C61.3749 13.927 61.3439 13.567 61.1799 13.25ZM30.9399 23.336C31.5151 23.6323 32.0258 24.0398 32.4424 24.5349C32.859 25.0299 33.1732 25.6027 33.3669 26.22C33.5723 26.8654 33.6329 27.5483 33.5442 28.2198C33.4555 28.8913 33.2198 29.535 32.8539 30.105L29.6409 35.126C29.3915 35.5142 29.0487 35.8336 28.644 36.0552C28.2392 36.2767 27.7854 36.3932 27.3239 36.394C26.9699 36.394 26.6159 36.326 26.2839 36.19L20.7649 33.936C20.1376 33.6806 19.5744 33.29 19.1153 32.792C18.6562 32.2941 18.3126 31.701 18.1089 31.055C17.9118 30.4388 17.8388 29.7897 17.8942 29.1451C17.9497 28.5006 18.1324 27.8734 18.4319 27.3C18.7283 26.7249 19.1358 26.2142 19.6309 25.7976C20.1259 25.3811 20.6986 25.0668 21.3159 24.873C22.3837 24.5378 23.5336 24.5745 24.5779 24.977C25.1997 24.0462 26.1188 23.3539 27.1849 23.013C27.8011 22.8161 28.4502 22.7433 29.0948 22.7987C29.7393 22.8541 30.3664 23.0368 30.9399 23.336ZM30.8249 27.025C30.736 26.742 30.5918 26.4795 30.4007 26.2526C30.2097 26.0257 29.9756 25.8389 29.7119 25.703C29.449 25.5656 29.1614 25.4818 28.8658 25.4564C28.5702 25.431 28.2725 25.4645 27.9899 25.555C27.6177 25.6716 27.2822 25.8833 27.0167 26.1692C26.7512 26.455 26.5648 26.8051 26.4759 27.185C26.422 27.4083 26.3113 27.6139 26.1546 27.7819C25.9979 27.9499 25.8005 28.0747 25.5815 28.1441C25.3625 28.2135 25.1292 28.2251 24.9044 28.178C24.6795 28.1309 24.4706 28.0265 24.2979 27.875C24.0063 27.6158 23.6521 27.4371 23.2704 27.3565C22.8887 27.2758 22.4925 27.296 22.1209 27.415C21.8379 27.5042 21.5754 27.6487 21.3487 27.8401C21.1219 28.0315 20.9354 28.266 20.7999 28.53C20.6626 28.793 20.5788 29.0806 20.5534 29.3762C20.528 29.6718 20.5615 29.9694 20.6519 30.252C20.8269 30.805 21.2369 31.249 21.7749 31.469L27.2929 33.723C27.3113 33.731 27.332 33.7317 27.3509 33.725C27.3695 33.7194 27.3855 33.7074 27.3959 33.691L30.6089 28.669C30.9229 28.179 31.0019 27.581 30.8259 27.027L30.8249 27.025ZM44.1719 40.932C44.2787 41.2656 44.3182 41.6171 44.2881 41.966C44.2581 42.315 44.1591 42.6545 43.9969 42.965C43.8364 43.2764 43.6157 43.5529 43.3476 43.7785C43.0795 44.004 42.7693 44.1742 42.4349 44.279L21.2399 50.994C20.5657 51.2062 19.8349 51.1426 19.2076 50.817C18.5802 50.4914 18.1075 49.9305 17.8929 49.257L8.01293 18.07C7.90612 17.7362 7.86658 17.3846 7.89662 17.0355C7.92666 16.6863 8.02568 16.3466 8.18793 16.036C8.34849 15.7249 8.56911 15.4487 8.83704 15.2233C9.10497 14.9979 9.41491 14.8279 9.74893 14.723L30.9449 8.009C31.6193 7.79619 32.3505 7.85955 32.9781 8.18519C33.6058 8.51083 34.0786 9.07215 34.2929 9.746L44.1719 40.932ZM41.6299 41.737L31.7499 10.551L21.9779 13.645L10.5529 17.264L20.4329 48.45L41.6299 41.737Z" fill="rgb(49,114,185)" fill-rule="nonzero" />
</svg>